<mxfile host="65bd71144e">
    <diagram id="mbkKpJFLCK-diL2DMaxm" name="ページ1">
        <mxGraphModel dx="635" dy="219" grid="1" gridSize="10" guides="1" tooltips="1" connect="1" arrows="1" fold="1" page="1" pageScale="1" pageWidth="827" pageHeight="1169" math="0" shadow="0">
            <root>
                <mxCell id="0"/>
                <mxCell id="1" parent="0"/>
                <mxCell id="3" value="" style="whiteSpace=wrap;html=1;" parent="1" vertex="1">
                    <mxGeometry x="370" y="140" width="127" height="127" as="geometry"/>
                </mxCell>
                <mxCell id="2" value="" style="shape=image;verticalLabelPosition=bottom;labelBackgroundColor=default;verticalAlign=top;aspect=fixed;imageAspect=0;image=data:image/png,iVBORw0KGgoAAAANSUhEUgAAAtAAAAB7CAYAAABdE7eYAAAAAXNSR0IArs4c6QAAIABJREFUeF7tnQfUFsX1h0eIvWBDrIAioCYgsaAodkWNKHYRVERQULFgwQaiWAAVCyJibIBixxbsijU2LFHsYiwxAkKE2CX693+e9XzJJ+5s+d7dfWf2/d1zOJ7jt+/s7DM7u3dn7v3dRX7++eefjUwEREAEREAEREAEREAERCARgUXkQCfipINEQAREQAREQAREQAREICAgB1o3ggiIgAiIgAiIgAiIgAikICAHOgUsHSoCIiACIiACIiACIiACcqB1D4iACIiACIiACIiACIhACgJyoFPA0qEiIAIiIAIiIAIiIAIiIAda94AIiIAIiIAIiIAIiIAIpCAgBzoFLB0qAiIgAiIgAiIgAiIgAnKgdQ+IgAiIgAiIgGcEZsyYYZ555hmzYMEC06pVK7PNNtuY3/3ud55dhborAg0nUO05IAe64WOnX4qACIiACIhAoQSofXbBBReYK6+80tSvg9a0aVNz3nnnmZ133rnQ/uhkIlA0AVfmgBzookde5xMBERABERCBBhK46KKLzOWXX279NY71n/70pwa2rp+JgPsEXJkDcqDdv1fUQxEQAREQAREwc+bMMZtvvrn58ccfrTS23nprc8MNN4iWCJSSgEtzQA50KW8xXZQIiIAIiEDZCEydOtX07t078rLOP/9807Nnz7Jduq5HBAICLs0BOdC6KUVABERABETAAwI33nijOeOMM6w9XWyxxcxLL71kmjRp4sHVqIsikJ6AS3NADnT68dMvREAEREAERKBwAuPGjTPDhw+3nneXXXYxV111VeH90glFoCgCLs0BOdBFjbrOIwIiIAIiIAIVEBg9erQZNWqUtYWLL77Y7LPPPhWcQT8VAbcJuDQH5EDncK/89NNP5u233zZvvfWW+de//hXICq2zzjo5nElNioAIiIAI1AoBVp9ZgbPZtGnTzCqrrFIrOHSdNUjApTkgBzrDGxBn+c9//rOZPHlykC1dZ0sttVSwaiBpoQxhqymvCPAxyRz44IMPzOGHH24OOOAAFX3wagTVWRcInHLKKeaWW24J7cp6661nHnroIRe6qT6IQG4EXJoDcqAzGGZEvSdOnGhGjBhhvv3229AWqRA1ZcoUs/7662dwRjUhAn4Q+O6778yZZ55pbr/99l8VfWjdurVBLaBjx45+XIh6KQIOEOjTp4959NFHQ3vCh+ngwYMd6KW6IAL5EXBpDqR2oF988cVAY5JM3y+++ML8/ve/N/vtt18Qd0UGcK3ZvHnzzHHHHWeefPLJ2EsfNGiQOfroo2OP0wEiwIfYtddeG6woffLJJ8FqbZcuXQIJq7Zt23oD6NxzzzVXX311aH8bN25sjj322GD+LLLIIt5ckzoqAtUisNtuu5k33ngj9PRjx441/F0mAmUm4NIcSOVAT5gwwQwdOvRXK0l1A7XmmmsaXpbbbbddmcfuV9f2zjvvGL6GPv3000TXPHLkSNO9e/dEx+qg2iUwf/58s9dee5m///3vv4GAo8k9dPrpp5vlllvOeUhHHXWUue+++yL7uccee5hLLrlEIR3Oj6Y6WG0CG220UZBXE2ZPP/20ad68ebW7qPOLQK4EXJoDiR3ojz/+2Gy//faRFZCgxjbSaaedZlhdKrM9++yz5ogjjjBfffVV4st8/PHHlUyYmFbtHnjyySeb2267LRLAWmutFchVsQPkskVtt9XvN/kBY8aMKf1zw+WxUt/cJsCulC0EkI/p6dOnu30B6p0IVEjAtTmQ2IFmG5YV5iSG6sQVV1xhFl100SSHe3cMscxsO0eVU134onjwPfjgg95dqzpcPIENNtjAfPPNN7EnXnrppYMwj06dOsUeW60DjjnmGHPvvfcmOn2vXr3MsGHDEh2rg0Sg1gig7ITOc5htscUW5uabb641JLreGiPg2hxI7ECfd955gcJEUiMmGk3Kshkrg2SB/t///V/iSyN+ddKkSWbzzTdP/BsdWJsEor6ww4jgRN95552GDHwXLc2HN/2Xjq2Lo6g+uUCAfAh2PcPskEMOMeecc44L3VQfRCA3Aq7NgcQONAkKxPCmMeR2XF4dS3MtHEvy5JAhQ0JjwMPaatSokdlpp53MwQcfbLbaaqu0p9PxNUqgTZs25ocffkh89XyY3XrrrYmPL/JA4jW32WabxKFOfBA88sgjZo011iiymzqXCDhPIOodjPoG4ZMyESgzAdfmQGIH+rnnnkudAHfRRRcFCh1lsLvuussMHDgwsfPcoUMHc+GFFxqcIZkIpCGARvLzzz+f+Cc4m8Tku2rsvpD0mNT42LzxxhuTHq7jRKAmCJx00kmBHGSYsTtM6KRMBMpMwLU5kNiBZlD4ymUVNok1adLE/O1vfzOswvpufDwcdNBBiWOee/bsGcRyErohE4G0BFB36dGjhzXbfuH20FkmWc9lS/Ps4DpIkLTFe7p8neqbCORFoFu3bsE7NczIr1l33XUNlQiRVOUf8aJhxi7PgQceaE499dTS5inlNQZqt7oEXJsDqRxo0JEcyMpyXAwwDvTrr79eXdoZnH3mzJmBtqZNOmjhU5A0xVeSTAQqIYDqTd++fc17770X2wzSkocddljscdU+AKeYMDBK3ccZKiNPPPGEPkLjQOnvNUMAxZ2vv/469HpRyGLXylbIK+xHaLCfeOKJNcNPF+o/AdfmQGoHmiFAjm3AgAHWyVw3TPfcc48hlMFX4yOBEBSKxiQxkgvRvZWJQBYEUOIgbCiuPO+2225r0Gj3wUjCRaYvibGLgzKHTARqnQALOVknoVMN1FbVsNZ56/rdI+DiHGiQAw3a8ePHB0VVosx3JQ7iylAfSWJ8yfNFLxOBLAlQCpviRDw8bEZxFbZsW7RokeWpc2vrhBNOMJMnT45tf+WVVzbPPPOMWXLJJWOP1QEiUGYCzG+UNrK0du3aGSRZZSLgAwEX50CDHWi2YXGQX331VSt7SnvzAmzWrJkP4/OrPlIFjhjMJGoIbLWjziETgTwIsONz6KGHRjbtk4byl19+GajTzJo1KxYXyYf9+vWLPU4HiEAZCfDhTAI7KjsfffRRZpe47LLLGiQmy6SSlRkcNeQUAZfnQIMdaAgTp0kFMVtcFscg4Za0AItLo4ZDQgxmnBHigdoGq4AyEciLQFwSHh+r3K++yL8hVceHZ5yttNJKgcLIEkssEXeo/i4CpSDwn//8x9x///2B4sZf//rX2HyjtBe95ZZbmlGjRpnVVlst7U91vAgUQsCXOVCRAw1JqoyROGczlCimTp3qzfYy14EjkiT2cocddgiKy0hto5A5VdMnWbBggdljjz2smfXA2X///YOPOV/syCOPDByFODv77LNjV+Dj2tDfG0Zg/vz5Zvnll2/Yj/WrVARIVEe+EaWrOXPmpPpt3MFUBSbREDWprbfeOu5w/V0EqkLAtzlQsQMNZWS0opKYunbtGqh3+GAkDrK9PGPGjMjusvVFHLhWxnwY1XL0kS3c3Xff3RACEWaNGzc2DzzwgGnbtq0XF/z5558HL/Wvvvoqsr8ochD/xvXJiiMwd+7c4KONXcYzzjhDu2w5of/nP/9pRo8eHVQU5UM5K2vVqpUhwbhz586mY8eOZplllsmqabUjApkS8HUOZOJA//jjj8GL/a233gqFSnjD3Xff7YUiB/087rjjIm8OHkjXXHONkpsynUJqLAmB++67L1LphYRDPux8sYkTJybKH1ChiGJH9PvvvzcU9KnTHcaJvvTSS83iiy9ebEdKfDY+UC6//HJDoSG2rCs1FnNIDKTyJx8+viQVV3rd+r2/BHyfA5k40AwfzjNONM50mLlcbriuvyRG7rjjjoYEQputv/765o477tDXvL9z1vuex4U+3HLLLd4kB7Hjs9dee1kLRNQNFh+tOBqy/An8/PPPwUfawuE1m2yySbBwsMIKK+TfiRKfgXv+uuuuC+KQ0+g225CQwM7Y/OEPf1A4YYnvmzJdWlnmQGYONIOL5BsrRTYjzIMtJVcN3eooKTpiAXmp+JKo5Spn9asyArNnzw5CH2zJu2ivcy/7Ynx8E+YVVWDFN6k+X9iH9RMn+Zxzzgm9hHXWWScI12vevLnPl1i1vlNllHoBtoqCaTu2+uqrGyrlykTAFwJlmgOZOtC80HGQbQkQVJFhC9pVxQpW0KOqJ7JqQOKgTASqTYCqfueff761G0hUdenSpdrdTHx+EgWZX1HGyjvlh2X5EiAmHelAFCDCDGUUxsrnIln5Evxt63Uxnuxe2nZpG9InPqSvv/76hvxUvxGBQgmUcQ5k6kAzGuhVDho0yDow48aNM7vuumuhA5fkZC+88EKgYmCzHj16mOHDhydpSseIQO4EiJnkYw4pyTBbb731zIMPPujsx+rCfebjm/htEgtt1rRp06BcsVRvcr+9AieP57it4A3FbYjfJeFaZifw2WefBQn0vBcbEufMRwrFlN59993Qkxx99NGR71uNjQhUm0CZ50DmDjTbsBQgee+990LHjRhilAJcW4VmxQWHI8yoiIYKgLKYqz0Vdf76BOIkJFmlZi76YkkSeK+99togT0FWDAHidFGICLNGjRoZdg6yrpBXzJXlexbkuEi6vPnmmxvkOLdv394MHDgwCNXiQ9mmCsXYdOvWLd+LUesi0AACtTAHMneg4fzwww+bww8/3IqczHsyhV0xQk5IcrRtrY0cOdJ0797dle6qHyIQECDZa7fddjNvvvlmKJE//vGPgfqNT0Z105deesna5Z133jkyz8Kna/Wlr7fddps57bTTrM/HI444wlAx0rVFkWrwJTmKj7xLLrnEfPPNN6m7QCIgjnP9j8QNNtjA2tZDDz1k2G2SiYArBGppDuTiQDOQJAVNnz49dEw33XTTQMnCFWOL7YILLgjtDhq0FFbRtrEro6V+1Cfw6KOPmj59+lih3HTTTYbKY74YyVVRK2rMw2nTppkVV1zRl0sqRT+feuop079/f6sjx/Mep5GKmLVsfEg0RC2G9wzJhXCs/yGCzNfGG28cipS5QEIWRVJkIuAKgVqaA7k50I899pg57LDDrGPqSpITq3ishttiSbkZCO+QiYCrBKKSX1nRmjJlilergzw3eH7YjOTJnj17ujocpe0Xaim9e/c2s2bNsi6MoOBRq5ULWXFmvrECl9RwfgcMGBDIBoZ9fBDzjx53mK277rqR8yRpH3ScCGRFoNbmQG4ONANCsqCtuErr1q0N20/Vri4WlTzISgAPsFVXXTWr+0vtiEDmBJhHbKPbjGQvCiv4YnHFYihFTLljWfEEZs6caXr16mVNaqP6HTJ3rKjWmhEKiB5zUkMKkDwFQjRsxmo2izhhRnGbK6+8MunpdJwI5E6g1uZArg40mslIT9nswgsvjFS+yH20jQkeTrYtNxIebYmFRfRN5xCBJATYRSFZkO3cMKMi2dSpU70JQ0J1gPht/htmbF2/8sorpkmTJknw6JiMCcTJ3JF0jbQaiXC1ZKhssAJNFcc4Y7WZsJjVVlst8tChQ4daK4tSMfeEE06IO5X+LgKFEai1OZCrA81WFhnEtsp+iMCjblGtuDmSBlkxmDdvXugNhqwdTr5MBFwncNddd5njjz/e2k2KHB100EGuX8Z/+xcXxnHxxRcbEg5l1SGQROZuzJgxNaeYcswxxxjUcZIYYUjMy6jkS+RTbXrcvu0sJWGiY/wnUEtzIFcHmlsBGZ+o4gd8YUfFSud5Oz3++OPm0EMPtZ5C8c950lfbWRLAoSG0AbH6MGvWrFmw4rXEEktkedrc2iJEY/Dgwdb2UR8ZO3ZsbudXw8kIRMncEZ6HzN3BBx+crLESHJWkqmb9yySMg90j5OpIrl84WZ3/Z9NGZ4eX4mQyEXCJQC3Ngdwd6AULFgQScWgChhlVrZ5++mmz9NJLF34P8AV/0UUXWc9LWXJks2Qi4AMBEnPPPfdca1eRIkNJwQdj14rCKjZbbrnlzKuvvupNWIoPzBvaxziZO+45FlFqReaOJFdim9Ma78AtttjCdO7cOXhnknuz4YYbWpvBUanGezPtden42iNQK3MgdweaWwdBeSSObHbSSScZlv2LNh7qrJDb7JFHHjFt2rQpuls6nwg0iADV/DbbbDPDf8MMdQS2g30pCNSxY0cze/ZsKwukMFmhk1WfQJzMHUmsrFZXK1yvSEIUE+OjgXoIlRjOsU1LepVVVgnkHGUi4CKBWpkDhTjQrD536tTJ/PDDD6FjveyyywYv9qKTgtha5MEfZqyWUD518cUXd/H+VJ9EIJQAK9CsRNvMp8QjEpDZprYZ8l8nn3yy7gRHCMTJ3PFxx71Z9HO+Gnh413Fv3nPPPbmcvmXLloECBws8qlGQC2I1WiGBWpgDhTjQjMOgQYPMrbfeah0SdDARki/SunTpYpVjIsHxueeeK7I7OpcIVEyAGOitttrKsAIQZqxqPfPMM14UIokLSfGx0mLUAKNuwaq7z0YWPv9shnYxMndrrrmmz5eZuO9UJaRIVxJljsSN1jtwySWXDOKgO3ToEOw+EQLiyw5TQ65Xv/GPQJnnQGEONKu5OKw240HAix0JpKKM+LL58+eHno4YtCiHv6g+6jwikJZA3Mrt4YcfHpmgl/Z8eR1PSe8opQ1W3t544w3Ds6MM9uWXX5p27dqV4VIir6Fp06aBzF0tXCsgPvnkE0OyPFKSeRtzAX3ovn37RupL590PtS8C9QmUdQ4U5kADMypkgr+jiEHWdhGGagGi/zZTln8Ro6Bz5EEAjeS99trL2jRhSYQuuV4giPhPVtfQubaZb6XKo8a7VhxoGCy11FKBikpUomgec6OabVKmfvTo0YEjHXVPZ9FHQhBZsCJxeO21186iSbUhAhUTKNscKNSB5qUdJWlEWVN0oddYY42KByqugblz55qNN97YetiBBx5oRowYEdeM/i4CThLAgcaRthma0GjQum7bbrut+fDDD63dpJAEcd1lsFpyoGttFbr+/clqHMolJMFS2TFP451KQiMa8YqVzpO02k5DoCxzoFAHGsBoXr799ttW1gcccEAQM5a3zZgxIyjyYrOi+pH3dar92iRABc1+/fpZL56X6RNPPOF8yWVKlFOq3GY77bSTueaaa0oxyLXiQNdaHLTt5mQVmhU57m8Un3gn5WVU1UWylUqJMhFwhYDvc6BwBzquYhov9kcffTT3bSc0ZPfcc0/rfbT33ntHSu+5cgOqHyIQRiCuCii/Ib6Yin4uGy999NptRink559/3uVLSNw35Af33XffxMe7eCBFP2ya//SX3BL09WtBiSPt+Hz66aeG4l582JIPlHXiIe9WPqpZja4FOcG0/HV89Qn4NgcKd6DjKqYxhGiGRr00sxhmZPMok2qzbbbZxkycODGLU6kNEagKgbgqoI0aNQpWvlgRdNWQATv22GMju8cq3gorrODqJdRMv3D8UFOyaRfzXOeDjbACWTSBuFL2lfBjvl933XWmRYsWlTSj34pArgR8mAOFO9AQxzEdMmSIFT4vdrag27Ztm9sAxZXxZsuLPshEwFcCyIlR1WzWrFnWSyBjHz1ZV2369Omma9eukd27++67DZJ2suoR4GON0usskIQZyjDIlNZKNcJKRyIqh4HVYyr8VmLNmjUzJOC6/PFcyfXpt/4T8GEOVMWBRmAbvUoS+WxGCW22+vIyVt6Q+rEZWppvvvlmXqdXuyJQCAE0OIcNG2Y9Fw7NfffdF6hduGiENcT1jd0qVjdlxRMghpEwmzFjxoSevHHjxuacc84xPXv2LL5zHp8RdRLK2YcZMpQk40+ZMiWYuw19T6200kpBMqOcaI9vlBJ33Yc5UBUHmjHHOY5TAbj33nsNWs15GHHWffr0iWz62WefLUQRJI/rU5siAIHvvvvObLnllpFxqTyoxo8f7yywjTbaKLL/FGk6+uijne1/WTvGDsdJJ51k2AEIM6TqrrjiCrP99tuXFUFu10WyH4V1wowdI3aO6uyjjz76rzNNNcg0RiVDnHDFRKehpmOLIODDHKiaA53kxc7286RJk3IZK+L1evXqFdk2Yv96+OeCX40WSCDJx+rkyZPNJptsUmCvkp+qW7dugVqBzXwpDJP8it0/EsUQuNsSOGtZpq7S0fviiy8iQ5JgTvJsmNU503feeaf54IMPEnVl+PDhkflAiRrRQSKQIQFf5kDVHGhYx5Xq5ZhbbrnFdOrUKcOh+aWpF1980ey3336R7R5zzDHBCotMBHwmwMcq5b3nzJljvQzKALOd66Kxusx2tc26d+9uRo4c6WLXS9knysWz+PD++++HXh8hAeS5FKHnX0bAURU4KYrC4k+cEYs+bty4QEnKFpde14brO1Bx16q/l4+AL3Ogqg40sdAUSvjss8+sdwDbt0jfZW1xpcU5n8p5Z01d7VWLQFziLv3iGNRnXDNWyHAGbEaSIaECsvwJEG9LxVjk6sJMMnWVj8GNN95ozjjjjNCG+JgkZCmpoTaFmkGUJF6HDh0MajcyEXCFgC9zoKoONIPF1jHVxKKMlWrKkmZp8+bNMzw4omyJJZYwqAAoPixL8mqrGgRYhaLoiC0xiT4Rc8ZKr2tKCRRKIRHNZjwbeEbI8iUQJ1NHqM2oUaMkU1fhMOA840CEGbtE7BalsbidXteVeNJcq44tBwFf5kDVHWiyuHnwvvbaa9aRb926dVCtiYzuLK1Vq1ax21s33HCD2XrrrbM8rdoSgaoQmDp1qundu3fkuUePHh3MR5cs7iNbDkD+oxUnU4f+Myujrn185U8m+zPY5LtYyGEHIO2CDio1KKXYjDBFwhVlIuAKAV/mQNUdaAYsruwwx1Dem/LaWVoSB5rtyrPPPjvL06otEagagV122cW8/fbb1vM3b948qIZG1TJXLM7xL6Lwkissiu5HEpm6c889V0loGQ3MTz/9FMg2krewsKF1blM8sZ2e5FsqjkbFQeepdpURFjVTQwR8mgNOONBJyg6TdcwWImEVWRnyXpSOjLK11lorKKsqE4EyEOAFfNxxx0VeCh+MfDi6Yk899VSge2uzvffeO0iWkmVLIIlM3dixYw1JaLJsCETl5qRdzHn99deDeRxVWn2dddYJPphlIuAKAZ/mgBMONAN3xx13mBNPPDFyDE8++WQzYMCAzMa5X79+iaoN/uUvfzHt27fP7LxqSASqRYCve6QZkbuy2YorrmiefvppQzEhF+zJJ580hxxyiLUrJEkNHTrUha6Wpg9JZOrQDiduXvZrAh9//HGgHsU8Quovjd1+++1W5acLL7zQ7L///omao87Bscceay2rXtcIoR1xalSJTqiDRKAegVqZA8440LzYd9xxx8gkp6WXXjp4sVNBKQtLokzAeaQzmwVtteEKAVRtjj/++MjuUHr51FNPdaLLcZrtiuHMdpjiZOrISZkwYYJk6hbCzm4mcook4rKrSjgU76s0NmTIkEANJ8ySLOTwHsUpptgK4TdRxqIQO1JZ5xaluV4dWy4CtTYHnHGguY2oiEQySpSxlUvMXRaGFBMZzTzsomz11Vc3VCVUgkwW1NVGtQlwv++6667mnXfesXZl8cUXD7Z2XdDyxSGJqjR4/vnnq1R0hjcVSg/s9oUZMnWoOiy33HIZntHvpphPFCu6+OKLDdKs9Y17t127dokvcPfddzeEXixsvHvIXVhyySWtbZFgOHjwYPPKK6/Eno9QSGKf27ZtG3usDhCBOAK1OgeccqAZpD333NO8+uqr1vEiuYmkQ1ZBsrCDDjoo0SoBskIUo5CJQBkIxK3qco2ocaDKUW1DCQfHwGY4LzvvvHO1u1mq87NIsbA0oGTqfjvE//73vw27Negthxn5BnEyrXW/W7BggVl//fVDE/5YxHnuuedCzzF79mxz6aWXBmEjcYtBdQ1wPEoHMhGolEAtzwHnHOioCjR1A02xB9s2V9qbAXm8I444IvZnrAyMGTMm9jgdIAK+EEjy8Ui4B8WMqmlxMlyULd54442r2cXSnRtHrH///oF8KCaZut8OMTuYKENFaat37tzZTJo0KdH9wcqxzalFSpUPyfrGijMa6awkx1UbrP+7NE59oo7roJolUOtzwDkHmjuRREHivaLsuuuuMzvssEPFNy4xY1RD/OSTTyLbQnuT8t8rrLBCxef0sQHiImHEi3XVVVc1LVq0yEzq7K233jLz588PQmSIG2S1JYtwma+//joohMMYL7/88oaM86WWWspH/Ln0+b333jPI2sHHZhtuuGFQpSyL8WjoRZx22mnmpptusv6c8CoXQk0aen2u/g4ptQMPPDBIXOvRo4er3axKv3i2oP6CYkCUpZGeu/baa82wYcNCm0O//ayzzjLM2QceeCD4FyVHaetTGfN59G6qyhQwmgPGOOlAU9obpYAwLcy6W2Xttdc2jzzySCZVrygSkCRhqowPn7ipRyIKq/2UU64/HsRAIpE0cOBA06hRo7hmQv/+7bffBvHsC6/Q4JwTg8mqf0MNpwpVl/pl4gn/oegGVe1wqGXGnHnmmUFCWJRVO1MfJ47xDDMSi1mJq6aDX+b7iI8rJZn9doQJy6DAT5zxfIuSYKz/e+L8iZkOM1ag58yZ0yCnmfYYQ95xSXZb467Jlb/r3VTdkdAccNSB5raI27blGB4IxJ9VauidEhbCl2yU8ZJmG61WYqFZFWaSPPbYY1YsVLBCBSGtkcDG2Nm2P2GN4562CiQr5CTzXHHFFdZ4wE022STRyy/tNfl4PHJl7MBEacWuvPLKBim5asnaderU6VcfQvU5d+jQIVghl4lAUQSiQi3q9yGtOgwJmjNnzsz8MqihgE4686gspndTdUdSc+AX/k6uQNMxEiq6dOliPvzwQ+udwuoTVcoIKajUkuhQc45mzZqZhx9+uPQrmHBnhTlKLxgejMELL7xgll122cRDgEOO4/3NN99E/gaFFBQBkhor2sRqJikMQMJNmV4oSRmFHRelulB3fJ8+fYKNaKkBAAANSUlEQVTV6qKNMaUymy05ijju8847r+hu6Xw1TIC5gM5ylCVJwCVumbA4nrGEgowYMSJzqoTfMG/TPJ8z70TGDerdlDHQBjSnOeC4A0330NDkBRllWZXx5QVNPGhcTBt9KXtCIaEarPySIJDEKGJBMYsklqS0bP12iPXbYIMNkjRt+vbtG4T1JDFUG1BvkJlAL5ZiCtOmTbPiIPzl/vvvL1z2iryDqEIPo0aNMvvuu6+GUQQKIUBIS5s2bWKT9ni+oKiBsRhEvCgLBvyXf+x2opmbJvkvzQWS78GH5RZbbJHmZ84fq3dT9YdIc+B/Y+DsCnRdF1mpJMs4yrKSmKNkd8+ePRPdoch7scpQRkMuqXv37okvjWpkaHgnMcIrLrvssiSHBsckjTsnDGe99dZL/EIiJhBnXnq2vwwFyUloQ0e90DfddFNDpbQi441RGSBm3WbsNuAsyESgCALsiNQ5xkWcL+050G9HZYNY50UXXTTtz50/Xu+m6g+R5oBHDvTcuXPNdtttZ4jVtFnLli2DlUeUMio1Hjx10k1RbTVp0iQ4JyEdZbOkSZV1183qJA5YkmQjysumiVllBYX+xBnbesTypjGcwY4dO6b5SamPveCCC4LY8SjjGKS7irKoD2his19++eWiuqLziEBAYMsttwxWj10zcjso913mD0q9m9y46zQHfhkH51eg6STxqqecckrknYNjhupCpcaDEXm877//PrapLPWoY09W4AGsrrM1nsZQQkiSZBalqBB2vqSr23Fb/WFtIxtF+XjZLwSookbeQVTcOzKOxLCvtNJKuWMjrAp95y+++CL0XFmFb+V+ITpBqQg05PmYJwAWcUhYJJSpoYpIefYvy7Ybwl7vpixH4Je2GjIO2ffify1Waw544UATo0lIwfPPP28dA1ZBCSNgG79SYxWOlbYkVsYywmFVyKJYkEhI+VnGIM66du0aaDMntaQfKTh1SeOw68599913G3RaZf8jgFwcHzlRVpTjSkVSKpPabOTIkalCjTTOIpAFAWKZd9ppp1jVpizOFdUG6ho885DJiyrxnXc/imxf76YiadvPpTnwCxsvHGg6itwZiRkkZNgMSSsqp1X6FU4cKOeaMWNG7N2K80jIx1prrRV7rC8HIObP6mxSo6AAMklJjDhbCqckNbYkySSPM5RRiJdOahTeIOa90nsl6fl8Og4N7jj1k6wKGUVxQZXgyiuvtB5C+eQ111zTJ7Tqa0kIvPbaa8HHG/GgRRq7fCwqkMiOE59k0aLI/uV9Lr2b8iacvH3NAY8caIY1iTb06aefbvr165f8LrAcSUgAjhur33GG3BphJmVxxqIqYi3MgiQ8Vn9XWWWVOEzB33FycXaTGKvDlGlOwhWnHOc8qVE8JG3MdNK2fT8OjVUKGUVpQyMdSQ5AXkmYfMSii0vxiDBr1apVIGEpE4FqEWCHhHfN7Nmzc+0CoYnt27c3rVu3rvmKm3o35XqrpW681ueANyvQjCwvVSrJRUnNkUiI3BYPm0otroRw/fYHDRpkqCRVBps1a1aQuBm3ukJZbBzRNIl4rNYnqYZFIsytt96a2DHnQ2e33XYLqtLF2eDBg1OtVse1V8a/o3xDAl+Updl5SMuIcCw0vW3Wv39/w/yUiUA1CSBJxzOQ1bj3338/0HVOIk3HyjFyeBtttFEQmmjb7aRiKmpBRSrfVJNn3Ln1boojVPzfa3kOeOVAc2tQAYcXd9TKMHJbFEap1L766qsgyYxJG2coUFA5r3PnznGHevH3p556yhx//PHWVUgcXCTpGhJDzLY8SYpIz4UZW5SUj066ql3Xxj/+8Y/AObeFiFBMAM3qKF1hLwanoE4ecsghQQXCKLvpppsCVYIsDQeE7WlblUrOpfj1LImrrawI8ExDEeizzz4LlKP4x3uEe5rnDzs3LVq0MOuuu+5/Zeb4GETvPsx4n0yaNCmr7pWiHb2b3B7GWpoD3jnQ3DqsIFJSO8pYwULBoVJjm7h3796JmiEemn6hHFAGI1EAqTdW9HFKiT8nSRMHFCmzSmQDKSSA8wVfHCVWZJBh6tWrVxA+0FBDuYFVbmLh+diaN29eECfL6jTVk4pQj2ho3137HYo0fEBSvMBm/D1NvHySa4xL4m3evHlQZEkmAmUgwEIFz6swS6qDXwYOaa5B76Y0tNw/1tc54KUDzRc9IQa2+EhuF+S4rr766kzuHGLQkq5o40SPHTtW8bWZkFcj1SbAvYzahc3YWuZjlXLbWRgfbCQxRu0wDRw4MNgdkYlAGQicddZZ5vrrrw+9lKRJ1GXgoGuoXQK+zgEvHWhuM4pxoP0cZVkVysBhxyFnWy6JEc7BDcEWuEwEfCbA1jPJmRTKsRkhHOwmVGqsZFN1MMp5ZqcC9Q22wmUiUAYCUWozClUqwwjrGuII+DoHvHWgGZC4ohyUXJ0yZUomUj+UEO3Ro4chRCCJ4UQjBUZYgkwEfCbwwgsvxEoJslJNmExDDCf9zDPPTBTrmWfiYkP6rt+IQKUELrvssiCfJMxIIKR4kUwEykzA1zngtQP9wQcfBCvDUVnPvJiJfc3C2E4bM2ZM4qbQhkbqq1ZE7hOD0YHeEYiKUeNiWBF+/PHHDcosaQwJsCOPPDJRSe5FF100kEwkCUsmAmUhYJNma9KkSVCgSiYCZSfg6xzw2oHmpoqrTIROLVm7WXzF46gjnj9t2rTE9/OAAQOCmE6ZCPhM4PPPPw/i+knesRmyd5QUTmrs6jA/5s6dm+gnhGyRjyATgTIRmDx5sjnhhBN+c0kbbrihQU5SJgJlJ+DrHPDegUaDENmzqJcwL924eOmkNyiSdmhRRxWZqN8Wq89sgbOaIBMBnwlcddVVhtL1NkOmi3udRNooI8aZkA+kDH/66adESCiqgpxXrVVeSwRHB3lNgIqoPXv2/M017LHHHkHxMJkIlJ2Ar3PAeweaG4sqgKeccor1HkOzmO3lrIwVaFaikwjmc87Ro0ebbt26ZXV6tSMCVSGAvucOO+xgPv74Y+v54+51Pnj5mCUUI6kxf5H5oqiETATKRoDiK1tttdVvLivtjk7ZuOh6aoeAr3OgFA40iX0oBbzzzjvWO44Kdcsss0xmdySydkm3k1X5LjPsaqjKBOIqBPbt29cMGTIktJc44Pvuu29QWS2pNW3aNJCQbNmyZdKf6DgR8IoAOzIdOnQw8+fP/1W/KSalok9eDaU620ACvs6BUjjQjBkrzIceemjo8KFVSzIG8dBZGiobVLaLK3mNNJck7bIkr7aqSYDdFJsTHOVADxs2LFXRFfIWKOfetm3bal6uzi0CuRMgdwDZ1fomCbvcsesEDhHwcQ6UxoHmPth///2DGMyFja97dKPzsOnTpwfydpRstRkFXVALkYlAGQigw0zMZphe84QJE0KLCPGRSbGVpDKQlHGfOHGiQYpSJgJlJ/Dyyy8HuzN182OzzTYLQhMbNWpU9kvX9YlAQMDHOVAqB5otMEpB118d4wF06aWX5hqD/OKLLwaa1LaY6CeeeMKsvfbamiYiUBoCrJadeuqpv7rno3TXmRtt2rRJlDTIcePHjzdrrLFGaXjpQkQgjgC7qPxjHuFMI9soE4FaIuDbHCiVA82N9t1335mzzz47qBrYvn17s/vuuxeyBUw4R5hcHWEjr732mlYSaukpUCPXyko0AvjonXfu3DkopLLYYotZr55dmHfffTeSzj777BNIU6bVk64R5LpMERABERABRwiUzoGuJtdx48aZ4cOH/6oLRx11VKRCSDX7q3OLQJEECKOyyUm2atUqqEaI1rRMBERABERABFwnIAc64xFCnouKhehSUwGxf//+hiRGmQiIgAnimqk6NXPmTIPCBqXuu3btGsjjKd5Td4gIiIAIiIAvBORA+zJS6qcIiIAIiIAIiIAIiIATBORAOzEM6oQIiIAIiIAIiIAIiIAvBORA+zJS6qcIiIAIiIAIiIAIiIATBORAOzEM6oQIiIAIiIAIiIAIiIAvBORA+zJS6qcIiIAIiIAIiIAIiIATBORAOzEM6oQIiIAIiIAIiIAIiIAvBORA+zJS6qcIiIAIiIAIiIAIiIATBORAOzEM6oQIiIAIiIAIiIAIiIAvBORA+zJS6qcIiIAIiIAIiIAIiIATBORAOzEM6oQIiIAIiIAIiIAIiIAvBORA+zJS6qcIiIAIiIAIiIAIiIATBORAOzEM6oQIiIAIiIAIiIAIiIAvBORA+zJS6qcIiIAIiIAIiIAIiIATBORAOzEM6oQIiIAIiIAIiIAIiIAvBORA+zJS6qcIiIAIiIAIiIAIiIATBORAOzEM6oQIiIAIiIAIiIAIiIAvBORA+zJS6qcIiIAIiIAIiIAIiIATBORAOzEM6oQIiIAIiIAIiIAIiIAvBORA+zJS6qcIiIAIiIAIiIAIiIATBORAOzEM6oQIiIAIiIAIiIAIiIAvBORA+zJS6qcIiIAIiIAIiIAIiIATBORAOzEM6oQIiIAIiIAIiIAIiIAvBORA+zJS6qcIiIAIiIAIiIAIiIATBP4fUxd76Ztuw6oAAAAASUVORK5CYII=;" parent="1" vertex="1">
                    <mxGeometry x="377" y="170" width="120" height="20.5" as="geometry"/>
                </mxCell>
            </root>
        </mxGraphModel>
    </diagram>
</mxfile>